<svg xmlns="http://www.w3.org/2000/svg" version="1.1" xmlns:xlink="http://www.w3.org/1999/xlink" xmlns:svgjs="http://svgjs.dev/svgjs" viewBox="0 0 5.721100267858878 1.7469921523387004"><g transform="matrix(1,0,0,1,1.80111614982312,0.6857300130487414)"><g><path d=" M 0.06498570127862208 0.002663348413058264 L 0.09215185509181656 0.002663348413058264 L 0.09215185509181656 0.37553212624121773 L 0.06498570127862208 0.37553212624121773 L 0.06498570127862208 0.002663348413058264 M 0.525203203813447 0.002663348413058264 L 0.525203203813447 0.37553212624121773 L 0.5028310771437574 0.37553212624121773 L 0.24874763853799733 0.051668959213330645 L 0.24874763853799733 0.37553212624121773 L 0.22158148472480285 0.37553212624121773 L 0.22158148472480285 0.002663348413058264 L 0.24448628107710407 0.002663348413058264 L 0.49803705000025256 0.32652651544094535 L 0.49803705000025256 0.002663348413058264 L 0.525203203813447 0.002663348413058264 M 0.7260334590668199 0.027166153813194482 L 0.5918006990486825 0.027166153813194482 L 0.5918006990486825 0.002663348413058264 L 0.8874323728981518 0.002663348413058264 L 0.8874323728981518 0.027166153813194482 L 0.7531996128800145 0.027166153813194482 L 0.7531996128800145 0.37553212624121773 L 0.7260334590668199 0.37553212624121773 L 0.7260334590668199 0.027166153813194482 M 1.2112892977031957 0.3510293208410815 L 1.2112892977031957 0.37553212624121773 L 0.9540098410017657 0.37553212624121773 L 0.9540098410017657 0.002663348413058264 L 1.203299252464021 0.002663348413058264 L 1.203299252464021 0.027166153813194482 L 0.9811759948149602 0.027166153813194482 L 0.9811759948149602 0.17418298621401163 L 1.179861786429108 0.17418298621401163 L 1.179861786429108 0.19815312193153617 L 0.9811759948149602 0.19815312193153617 L 0.9811759948149602 0.3510293208410815 L 1.2112892977031957 0.3510293208410815 M 1.3098365701903922 0.002663348413058264 L 1.3370027240035867 0.002663348413058264 L 1.3370027240035867 0.3510293208410815 L 1.5516686060960843 0.3510293208410815 L 1.5516686060960843 0.37553212624121773 L 1.3098365701903922 0.37553212624121773 L 1.3098365701903922 0.002663348413058264 M 1.6209273690034303 0.002663348413058264 L 1.6480935228166247 0.002663348413058264 L 1.6480935228166247 0.3510293208410815 L 1.8627594049091223 0.3510293208410815 L 1.8627594049091223 0.37553212624121773 L 1.6209273690034303 0.37553212624121773 L 1.6209273690034303 0.002663348413058264 M 1.9320181678164683 0.002663348413058264 L 1.9591843216296627 0.002663348413058264 L 1.9591843216296627 0.37553212624121773 L 1.9320181678164683 0.37553212624121773 L 1.9320181678164683 0.002663348413058264 M 2.283847533551941 0.35369266925413984 Q 2.239902284736479 0.3291898638540036 2.2146004748124257 0.2860436195624595 Q 2.189298664888372 0.2428973752709153 2.189298664888372 0.189097737327138 Q 2.189298664888372 0.1352980993833607 2.2146004748124257 0.09215185509181656 Q 2.239902284736479 0.04900561080027238 2.283847533551941 0.024502805400136163 Q 2.3277927823674025 0 2.382657759676403 0 Q 2.423140655554889 0 2.457231515242035 0.013050407223985594 Q 2.491322374929181 0.026100814447971132 2.5152925106467054 0.051668959213330645 L 2.4982470808031327 0.06924705873951531 Q 2.4535028274637534 0.025035475082747838 2.3837230990416263 0.025035475082747838 Q 2.3368481669718006 0.025035475082747838 2.2984959498237614 0.04634226238721412 Q 2.260143732675722 0.06764904969168034 2.238304275688644 0.1052022623158021 Q 2.2164648187015663 0.1427554749399239 2.2164648187015663 0.189097737327138 Q 2.2164648187015663 0.23543999971435212 2.238304275688644 0.2729932123384739 Q 2.260143732675722 0.31054642496259566 2.2984959498237614 0.3318532122670619 Q 2.3368481669718006 0.35315999957152816 2.3837230990416263 0.35315999957152816 Q 2.4529701577811416 0.35315999957152816 2.4982470808031327 0.308415746232149 L 2.5152925106467054 0.3259938457583337 Q 2.491322374929181 0.3515619905236932 2.4569651804007293 0.3648787325889846 Q 2.4226079858722773 0.378195474654276 2.382657759676403 0.378195474654276 Q 2.3277927823674025 0.378195474654276 2.283847533551941 0.35369266925413984 M 2.9094698964276606 0.002663348413058264 L 2.9094698964276606 0.37553212624121773 L 2.882303742614466 0.37553212624121773 L 2.882303742614466 0.19815312193153617 L 2.6330143311522107 0.19815312193153617 L 2.6330143311522107 0.37553212624121773 L 2.6058481773390163 0.37553212624121773 L 2.6058481773390163 0.002663348413058264 L 2.6330143311522107 0.002663348413058264 L 2.6330143311522107 0.17418298621401163 L 2.882303742614466 0.17418298621401163 L 2.882303742614466 0.002663348413058264 L 2.9094698964276606 0.002663348413058264 M 3.2962018709125016 0.3510293208410815 L 3.2962018709125016 0.37553212624121773 L 3.0389224142110716 0.37553212624121773 L 3.0389224142110716 0.002663348413058264 L 3.288211825673327 0.002663348413058264 L 3.288211825673327 0.027166153813194482 L 3.0660885680242664 0.027166153813194482 L 3.0660885680242664 0.17418298621401163 L 3.2647743596384142 0.17418298621401163 L 3.2647743596384142 0.19815312193153617 L 3.0660885680242664 0.19815312193153617 L 3.0660885680242664 0.3510293208410815 L 3.2962018709125016 0.3510293208410815 M 3.421915297212893 0.027166153813194482 L 3.421915297212893 0.18643438891407974 L 3.6206010888270406 0.18643438891407974 L 3.6206010888270406 0.21093719431421593 L 3.421915297212893 0.21093719431421593 L 3.421915297212893 0.37553212624121773 L 3.394749143399698 0.37553212624121773 L 3.394749143399698 0.002663348413058264 L 3.6440385548619534 0.002663348413058264 L 3.6440385548619534 0.027166153813194482 L 3.421915297212893 0.027166153813194482" fill="#000000" fill-rule="nonzero"></path></g><g></g><g transform="matrix(-1,0,0,1,-1.9470001601168914,0)" clip-path="url(#SvgjsClipPath1001)"><g clip-path="url(#SvgjsClipPath1000babbe3a6-ec3d-4e66-811c-84c6e86f461a)"><path d=" M -1.2487801184864997 0.12694164686275977 L -1.5011201537122156 0.28219869766227146 L -1.5011201537122156 0.5979912271826094 L -1.2487801184864997 0.7532482779821214 L -0.9964400832607836 0.5979912271826094 L -0.9964400832607836 0.28219869766227146 Z M -0.9505600768561079 0.25658607272762246 L -1.2487801184864997 0.07306604710891984 L -1.5470001601168915 0.25658607272762246 L -1.5470001601168915 0.6236261239650279 L -1.2487801184864997 0.8071461495837305 L -0.9505600768561079 0.6236261239650279 Z" fill="url(#gradient-46a5f9bc-2128-4b77-a573-c1d49c35ac85_0)" transform="matrix(1,0,0,1,0,0)" fill-rule="evenodd"></path></g><g clip-path="url(#SvgjsClipPath1000babbe3a6-ec3d-4e66-811c-84c6e86f461a)"><path d=" M -0.6982200416303918 0.12694164686275977 L -0.9505600768561079 0.28219869766227146 L -0.9505600768561079 0.5979912271826094 L -0.6982200416303918 0.7532482779821214 L -0.44588000640467595 0.5979912271826094 L -0.44588000640467595 0.28219869766227146 Z M -0.3999999999999999 0.25658607272762246 L -0.6982200416303918 0.07306604710891984 L -0.9964400832607836 0.25658607272762246 L -0.9964400832607836 0.6236261239650279 L -0.6982200416303918 0.8071461495837305 L -0.3999999999999999 0.6236261239650279 Z" fill="url(#gradient-46a5f9bc-2128-4b77-a573-c1d49c35ac85_1)" transform="matrix(1,0,0,1,0,0)" fill-rule="evenodd"></path></g><g clip-path="url(#SvgjsClipPath1000babbe3a6-ec3d-4e66-811c-84c6e86f461a)"><path d=" M -0.9735000800584457 -0.3777384235886726 L -1.2258401152841618 -0.22245910094139165 L -1.2258401152841618 0.09331115673117707 L -0.9735000800584457 0.24859047937845813 L -0.7211600448327297 0.09331115673117707 L -0.7211600448327297 -0.22245910094139165 Z M -0.675280038428054 -0.24809399772380994 L -0.9735000800584457 -0.43161402334251264 L -1.2717201216888374 -0.24809399772380994 L -1.2717201216888374 0.11894605351359544 L -0.9735000800584457 0.30246607913229817 L -0.675280038428054 0.11894605351359544 Z" fill="url(#gradient-46a5f9bc-2128-4b77-a573-c1d49c35ac85_2)" transform="matrix(1,0,0,1,0,0)" fill-rule="evenodd"></path></g></g></g><defs><clipPath id="SvgjsClipPath1001"><path d=" M -1.5470001601168915 -0.43161402334251264 h 1.1470001601168915 v 1.238760172926243 h -1.1470001601168915 Z"></path></clipPath><clipPath id="SvgjsClipPath1000babbe3a6-ec3d-4e66-811c-84c6e86f461a"><path d=" M -1.5470001601168915 -0.43161402334251264 L -0.3999999999999999 -0.43161402334251264 L -0.3999999999999999 0.8071461495837303 L -1.5470001601168912 0.8071461495837303 Z"></path></clipPath><linearGradient id="gradient-46a5f9bc-2128-4b77-a573-c1d49c35ac85_0" x1="0" x2="1" y1="0" y2="1"><stop stop-color="#2e6e96" offset="0"></stop><stop stop-color="#193853" offset="1"></stop></linearGradient><linearGradient id="gradient-46a5f9bc-2128-4b77-a573-c1d49c35ac85_1" x1="0" x2="1" y1="0" y2="1"><stop stop-color="#255679" offset="0"></stop><stop stop-color="#102036" offset="1"></stop></linearGradient><linearGradient id="gradient-46a5f9bc-2128-4b77-a573-c1d49c35ac85_2" x1="0" x2="1" y1="0" y2="1"><stop stop-color="#3176a0" offset="0"></stop><stop stop-color="#1c3f5c" offset="1"></stop></linearGradient></defs></svg>