<svg xmlns="http://www.w3.org/2000/svg" version="1.1" xmlns:xlink="http://www.w3.org/1999/xlink" xmlns:svgjs="http://svgjs.dev/svgjs" width="1500" height="1500" viewBox="0 0 1500 1500"><rect width="1500" height="1500" fill="#ffffff"></rect><g transform="matrix(0.6666666666666666,0,0,0.6666666666666666,249.39393939393938,638.5721757406455)"><svg viewBox="0 0 396 88" data-background-color="#ffffff" preserveAspectRatio="xMidYMid meet" height="333" width="1500" xmlns="http://www.w3.org/2000/svg" xmlns:xlink="http://www.w3.org/1999/xlink"><g id="tight-bounds" transform="matrix(1,0,0,1,0.2400000000000091,0.16958799469904307)"><svg viewBox="0 0 395.52 87.66082401060193" height="87.66082401060193" width="395.52"><g><svg viewBox="0 0 521.8315449135162 115.65580304875672" height="87.66082401060193" width="395.52"><g transform="matrix(1,0,0,1,0,15.984268004567681)"><svg viewBox="0 0 395.52 83.68726703962136" height="83.68726703962136" width="395.52"><g id="textblocktransform"><svg viewBox="0 0 395.52 83.68726703962136" height="83.68726703962136" width="395.52" id="textblock"><g><svg viewBox="0 0 395.52 45.13691296344991" height="45.13691296344991" width="395.52"><g transform="matrix(1,0,0,1,0,0)"><svg width="395.52" viewBox="5.05 -31.95 285.2 32.55" height="45.13691296344991" data-palette-color="#77d4fc"><path d="M8.95 0L5.05 0 5.05-31.4 8.95-31.4 8.95 0ZM19 0L19-31.4 23.65-31.4 39.6-5.55 39.25-5.55 39.25-31.4 43.15-31.4 43.15 0 38.8 0 22.3-26.7 22.9-26.7 22.9 0 19 0ZM59.62-28.05L48.5-28.05 48.5-31.4 72.95-31.4 72.95-28.05 61.77-28.05 62.65-28.95 62.65 0 58.75 0 58.75-28.95 59.62-28.05ZM97.57 0L78.22 0 78.22-31.4 97.57-31.4 97.57-28.05 82.12-28.05 82.12-17.5 96.67-17.5 96.67-14.15 82.12-14.15 82.12-3.4 97.57-3.4 97.57 0ZM106.37-31.4L110.27-31.4 110.27-3.4 124.27-3.4 124.27 0 106.37 0 106.37-31.4ZM129.74-31.4L133.64-31.4 133.64-3.4 147.64-3.4 147.64 0 129.74 0 129.74-31.4ZM157.01 0L153.11 0 153.11-31.4 157.01-31.4 157.01 0ZM189.88 0.6L189.88 0.6Q185.73 0.6 182.73-1.49 179.73-3.58 178.11-7.29 176.48-11 176.48-15.9L176.48-15.9Q176.48-21.13 178.24-24.7 180.01-28.28 183.04-30.11 186.08-31.95 189.88-31.95L189.88-31.95Q194.91-31.95 197.97-29.44 201.03-26.93 202.18-22.9L202.18-22.9 197.98-22.05Q197.01-24.98 194.87-26.71 192.73-28.45 189.88-28.45L189.88-28.45Q187.41-28.45 185.32-27.04 183.23-25.63 181.96-22.83 180.68-20.03 180.68-15.9L180.68-15.9Q180.68-12.15 181.69-9.22 182.71-6.3 184.74-4.63 186.78-2.95 189.88-2.95L189.88-2.95Q193.61-2.95 195.79-4.95 197.98-6.95 197.98-10.2L197.98-10.2 202.23-10.2Q202.23-6.83 200.68-4.41 199.13-2 196.34-0.7 193.56 0.6 189.88 0.6ZM209.63 0L209.63-31.4 213.53-31.4 213.53-17.55 229.08-17.55 229.08-31.4 232.93-31.4 232.93 0 229.08 0 229.08-14.2 213.53-14.2 213.53 0 209.63 0ZM262.35 0L243 0 243-31.4 262.35-31.4 262.35-28.05 246.9-28.05 246.9-17.5 261.45-17.5 261.45-14.15 246.9-14.15 246.9-3.4 262.35-3.4 262.35 0ZM275.05 0L271.15 0 271.15-31.4 290.25-31.4 290.25-28.05 275.05-28.05 275.05-17.6 289.2-17.6 289.2-14.25 275.05-14.25 275.05 0Z" opacity="1" transform="matrix(1,0,0,1,0,0)" fill="#000000" class="wordmark-text-0" data-fill-palette-color="primary" id="text-0"></path></svg></g></svg></g><g transform="matrix(1,0,0,1,175.3442059038164,55.79265482820931)"><svg viewBox="0 0 220.17579409618358 27.894612211412042" height="27.894612211412042" width="220.17579409618358"><g transform="matrix(1,0,0,1,0,0)"><svg width="220.17579409618358" viewBox="4.65 -32.35 258.48 32.75" height="27.894612211412042" data-palette-color="#4b91f1"><path d="M8.75-32.05L8.5-10 8.7 0 4.65 0 4.9-9.65 4.65-32.05 8.75-32.05ZM42.9-32.15L42.65-9.4 42.75 0 38.55 0 21.95-25.65 21.7-25.65 21.65-10.55 21.7 0 18.1 0 18.25-9.5 18.15-32.05 22.3-32.05 38.85-6.4 39.2-6.4 39.15-31.85 42.9-32.15ZM77.05-32.15L76.8-9.4 76.9 0 72.7 0 56.09-25.65 55.84-25.65 55.8-10.55 55.84 0 52.25 0 52.4-9.5 52.3-32.05 56.45-32.05 73-6.4 73.34-6.4 73.3-31.85 77.05-32.15ZM97.09-32.35Q103.69-32.35 107.22-28.3 110.74-24.25 110.74-16.65L110.74-16.65Q110.74-8.45 106.99-4.03 103.24 0.4 96.29 0.4L96.29 0.4Q89.79 0.4 86.27-3.8 82.74-8 82.74-15.75L82.74-15.75Q82.74-23.75 86.47-28.05 90.19-32.35 97.09-32.35L97.09-32.35ZM96.84-29.1Q86.84-29.1 86.84-16.2L86.84-16.2Q86.84-9.35 89.27-6.05 91.69-2.75 96.59-2.75L96.59-2.75Q106.59-2.75 106.59-15.9L106.59-15.9Q106.59-22.6 104.17-25.85 101.74-29.1 96.84-29.1L96.84-29.1ZM139.64-32.05L127.89 0 123.24 0 112.54-32.05 116.64-32.05 117.39-28.8 125.54-4.05 125.84-4.05 134.84-28.6 135.64-32.05 139.64-32.05ZM155.99-32.05L166.69 0 162.59 0 161.84-3.2 160.04-8.7 152.84-8.85 146.34-8.7 144.39-3.4 143.59 0 139.59 0 151.34-32.05 155.99-32.05ZM153.19-12L158.94-12.1 153.74-27.9 153.39-27.9 147.59-12.1 153.19-12ZM188.19-32.05L188.49-31.65 188.19-28.55 182.59-28.85 179.34-28.85 179.19-10 179.34 0 175.29 0 175.59-9.65 175.34-28.85 172.09-28.85 166.39-28.55 166.14-28.95 166.44-32.05 188.19-32.05ZM198.28-32.05L198.03-10 198.23 0 194.18 0 194.43-9.65 194.18-32.05 198.28-32.05ZM232.43-32.15L232.18-9.4 232.28 0 228.08 0 211.48-25.65 211.23-25.65 211.18-10.55 211.23 0 207.63 0 207.78-9.5 207.68-32.05 211.83-32.05 228.38-6.4 228.73-6.4 228.68-31.85 232.43-32.15ZM253.73-32.3Q258.78-32.3 263.13-30.05L263.13-30.05 262.33-26.25 261.83-26.15Q259.43-27.65 257.4-28.3 255.38-28.95 253.13-28.95L253.13-28.95Q242.28-28.95 242.28-15.55L242.28-15.55Q242.28-9.1 244.8-6.08 247.33-3.05 252.63-3.05L252.63-3.05Q254.03-3.05 255.45-3.3 256.88-3.55 259.13-4.25L259.13-4.25 259.23-8 259.18-12.8 262.93-13.1 262.83-8.55 263.03-1.55Q259.78-0.55 257.28-0.1 254.78 0.35 252.43 0.35L252.43 0.35Q245.28 0.35 241.7-3.7 238.13-7.75 238.13-15.4L238.13-15.4Q238.13-23.65 242.18-27.98 246.23-32.3 253.73-32.3L253.73-32.3Z" opacity="1" transform="matrix(1,0,0,1,0,0)" fill="#000000" class="slogan-text-1" data-fill-palette-color="secondary" id="text-1"></path></svg></g></svg></g></svg></g></svg></g><g transform="matrix(1,0,0,1,406.1757418647594,0)"><svg viewBox="0 0 115.65580304875672 115.65580304875672" height="115.65580304875672" width="115.65580304875672"><g data-palette-color="#4b91f1"><rect width="31.61258616666017" height="115.65580304875672" fill="#000000" stroke="transparent" data-fill-palette-color="accent" x="0" fill-opacity="1"></rect><rect width="31.61258616666017" height="115.65580304875672" fill="#000000" stroke="transparent" data-fill-palette-color="accent" x="38.55193434958557" fill-opacity="0.75"></rect><rect width="31.61258616666017" height="115.65580304875672" fill="#000000" stroke="transparent" data-fill-palette-color="accent" x="77.10386869917114" fill-opacity="0.5"></rect></g></svg></g></svg></g><defs></defs></svg><rect width="395.52" height="87.66082401060193" fill="none" stroke="none" visibility="hidden"></rect></g></svg></g></svg>